<?xml version="1.0" encoding="utf-8"?>
<svg viewBox="0 0 500 500" xmlns="http://www.w3.org/2000/svg">
  <g id="Flag icon" transform="matrix(1, 0, 0, 1, -230.371979, -900.8255)">
    <path id="Shape" class="shp46" d="M366 934L302 934L302 1000L366 1000L345.84 967L366 934Z" style="fill: rgb(216, 72, 72);"/>
    <path id="Shape 22" class="shp54" d="M302 986.75L302 1000L319 989L302 986.75Z" style="fill: rgb(170, 31, 31);"/>
    <path id="Shape" class="shp47" d="M319 989L271 989L252.66 925L319 925L319 989Z" style="fill: rgb(245, 123, 113);"/>
    <path id="Shape 21" class="shp44" d="M250.44 920.18C253.1 919.47 255.84 921.05 256.56 923.72L287.1 1037.7C287.81 1040.36 286.23 1043.1 283.56 1043.82C280.9 1044.53 278.16 1042.95 277.44 1040.28L246.9 926.3C246.19 923.64 247.77 920.9 250.44 920.18Z" style="fill: rgb(218, 234, 242);"/>
  </g>
</svg>