<?xml version="1.0" encoding="utf-8"?>
<svg viewBox="0 0 500 500" xmlns="http://www.w3.org/2000/svg">
  <g id="Crayon icon" transform="matrix(1, 0, 0, 1, -451.097656, -888.447449)">
    <path id="Color Fill 3" class="shp50" d="M540.81 1005.46L544.76 1045.62L581.51 1028.96C581.51 1028.96 573.69 1002.51 540.81 1005.46Z" style="fill: rgb(255, 236, 186);"/>
    <path id="Shape 25" class="shp51" d="M542.66 1034.24C542.66 1034.24 548.45 1034.89 555.8 1041.83C563.15 1048.76 546.26 1049.02 546.26 1049.02C546.26 1049.02 537.53 1045.14 537.43 1044.31C537.33 1043.48 539.52 1034.35 539.52 1034.35" style="fill: rgb(57, 57, 57);"/>
    <path id="Shape 19" class="shp52" d="M617.66 918.42C628.9 924.91 632.75 939.28 626.26 950.52L620.76 960.05C614.27 971.29 599.9 975.14 588.66 968.65C577.42 962.16 573.57 947.79 580.06 936.55L585.56 927.02C592.05 915.78 606.42 911.93 617.66 918.42Z" style="fill: rgb(232, 143, 141);"/>
    <path id="Shape 23" class="shp42" d="M618.59 917.8L639.38 929.8L625.88 953.19L605.09 941.19L618.59 917.8Z" style="fill: rgb(217, 116, 117);"/>
    <path id="Shape 17 copy" class="shp44" d="M585.31 927.46C585.31 927.46 596.48 931.6 606.65 937.47C616.83 943.35 626.01 950.95 626.01 950.95L613.51 972.61L572.81 949.11L585.31 927.46Z" style="fill: rgb(218, 234, 242);"/>
    <path id="Shape 24" class="shp45" d="M608.09 935.99L629.74 948.49L616.74 971.01L595.09 958.51L608.09 935.99Z" style="fill: rgb(190, 218, 232);"/>
    <path id="Shape 17" class="shp43" d="M574.85 945.33C574.85 945.33 586.02 949.47 596.2 955.34C606.37 961.22 615.55 968.83 615.55 968.83L581.51 1028.96C581.51 1028.96 578.55 1024.94 572.98 1021.73C566.42 1017.94 558.27 1022.47 558.27 1022.47C558.27 1022.47 558.37 1013.29 551.21 1009.15C545.76 1006.01 540.81 1005.46 540.81 1005.46L574.85 945.33Z" style="fill: rgb(241, 196, 15);"/>
    <path id="Shape 18" class="shp53" d="M602.59 946.44L625.97 959.95L581.97 1036.16L558.59 1022.66L602.59 946.44Z" style="fill: rgb(243, 156, 18);"/>
  </g>
</svg>