<?xml version="1.0" encoding="utf-8"?>
<svg viewBox="0 0 500 500" xmlns="http://www.w3.org/2000/svg">
  <g id="Rocket icon" transform="matrix(1, 0, 0, 1, -951.428772, -867.249939)">
    <path id="Shape 30" class="shp40" d="M1138.1 1024C1138.1 1024 1139.71 1025.22 1139.79 1027.57C1139.88 1029.93 1139.24 1045.15 1139.24 1045.15C1139.24 1045.15 1153.67 1028.15 1157.84 1022.87C1161.28 1018.51 1161.89 1010.31 1155.71 1005.01C1149.53 999.71 1138.1 1024 1138.1 1024Z" style="fill: rgb(58, 109, 165);"/>
    <path id="Color Fill 5" class="shp41" d="M1108.96 1007.17C1108.96 1007.17 1107.1 1006.39 1105.02 1007.49C1102.94 1008.6 1090.08 1016.77 1090.08 1016.77C1090.08 1016.77 1097.58 995.77 1100.07 989.51C1102.12 984.35 1108.92 979.73 1116.6 982.43C1124.28 985.13 1108.96 1007.17 1108.96 1007.17Z" style="fill: rgb(72, 127, 188);"/>
    <path id="Shape 31" class="shp42" d="M1116.08 1012.15L1129.94 1020.15C1131.61 1021.11 1132.18 1023.26 1131.22 1024.93C1130.25 1026.6 1128.11 1027.18 1126.44 1026.21L1112.58 1018.21C1110.91 1017.24 1110.33 1015.1 1111.3 1013.43C1112.26 1011.76 1114.41 1011.18 1116.08 1012.15Z" style="fill: rgb(217, 116, 117);"/>
    <path id="Shape 32" class="shp43" d="M1119.81 1024.69C1123.63 1026.9 1124.94 1031.79 1122.73 1035.62C1120.53 1039.45 1105.66 1049.14 1105.66 1049.14C1105.66 1049.14 1106.67 1031.45 1108.88 1027.62C1111.09 1023.79 1115.98 1022.48 1119.81 1024.69Z" style="fill: rgb(241, 196, 15);"/>
    <path id="Shape 27" class="shp44" d="M1181.5 920.57C1180.9 918.75 1180.49 917.13 1180.58 916.97C1180.68 916.8 1180.72 916.67 1180.66 916.68C1180.61 916.68 1180.17 916.64 1180.11 916.49C1180.06 916.35 1179.93 916.37 1179.83 916.54C1179.73 916.72 1178.12 917.21 1176.26 917.63C1176.26 917.63 1141.15 925.59 1125.45 954.34C1107.98 986.33 1109.3 1008.12 1109.3 1008.12C1109.26 1010.03 1110.58 1012.37 1112.24 1013.33L1118.02 1016.66C1119.67 1017.62 1121.19 1018.5 1121.4 1018.62C1121.6 1018.73 1123.12 1019.61 1124.78 1020.57L1130.92 1024.11C1132.57 1025.07 1135.28 1025.07 1136.93 1024.12C1136.93 1024.12 1155.49 1013.76 1174.46 982.64C1191.54 954.61 1181.5 920.57 1181.5 920.57Z" style="fill: rgb(218, 234, 242);"/>
    <path id="Shape 33" class="shp45" d="M1181.44 915.94L1206.56 930.44L1145.56 1036.09L1120.44 1021.59L1181.44 915.94Z" style="fill: rgb(190, 218, 232);"/>
    <path id="Shape 29 copy" class="shp46" d="M1182.95 913.32L1198.55 922.3L1185.55 944.82C1185.55 944.82 1178.75 938.77 1170.94 934.14L1182.95 913.32Z" style="fill: rgb(216, 72, 72);"/>
    <path id="Shape 29" class="shp47" d="M1170.94 934.14C1170.7 934 1170.47 933.86 1170.24 933.72C1162.32 929.15 1153.51 926.32 1153.51 926.32L1166.49 903.84L1182.95 913.32L1170.94 934.14Z" style="fill: rgb(245, 123, 113);"/>
    <path id="Shape 28 copy" class="shp21" d="M1160.99 950.36C1168.86 954.91 1171.56 964.98 1167.02 972.85C1162.47 980.73 1152.4 983.43 1144.52 978.88C1136.65 974.33 1133.95 964.26 1138.5 956.39C1143.04 948.51 1153.11 945.81 1160.99 950.36Z" style="fill: rgb(255, 255, 255);"/>
    <path id="Shape 28" class="shp48" d="M1159.01 953.79C1164.99 957.25 1167.03 964.89 1163.58 970.87C1160.13 976.85 1152.49 978.9 1146.51 975.45C1140.53 971.99 1138.48 964.35 1141.93 958.37C1145.38 952.39 1153.03 950.34 1159.01 953.79Z" style="fill: rgb(90, 210, 235);"/>
  </g>
</svg>