<?xml version="1.0" encoding="utf-8"?>
<svg viewBox="0 0 500 500" xmlns="http://www.w3.org/2000/svg">
  <g id="Gears icon" transform="matrix(1, 0, 0, 1, -636.016785, -874.664185)">
    <path id="Shape 16" class="shp41" d="M871.2 976.69C872.82 976.39 874.15 974.79 874.15 973.14L874.15 965.14C874.15 963.49 872.82 961.89 871.2 961.58L864.78 960.38C863.16 960.08 861.41 958.55 860.89 956.98L859.03 952.45C858.29 950.97 858.45 948.65 859.38 947.29L863.06 941.91C863.99 940.54 863.8 938.47 862.63 937.31L856.98 931.65C855.81 930.48 853.74 930.29 852.38 931.22L847.06 934.86C845.7 935.79 843.39 935.94 841.92 935.19L837.27 933.26C835.71 932.73 834.18 930.97 833.87 929.35L832.7 923.09C832.4 921.46 830.8 920.14 829.15 920.14L821.15 920.14C819.5 920.14 817.9 921.46 817.59 923.09L816.43 929.31C816.12 930.93 814.59 932.69 813.03 933.2L808.31 935.15C806.83 935.89 804.52 935.74 803.15 934.81L797.92 931.22C796.55 930.29 794.49 930.48 793.32 931.65L787.66 937.31C786.49 938.47 786.3 940.54 787.23 941.91L790.83 947.16C791.76 948.52 791.91 950.84 791.17 952.31L789.23 957.01C788.71 958.58 786.96 960.11 785.34 960.41L779.1 961.58C777.47 961.89 776.15 963.49 776.15 965.14L776.15 973.14C776.15 974.79 777.47 976.39 779.1 976.69L785.34 977.86C786.96 978.17 788.71 979.7 789.23 981.26L791.17 985.97C791.91 987.44 791.76 989.76 790.83 991.12L787.24 996.37C786.3 997.73 786.5 999.8 787.66 1000.97L793.32 1006.62C794.49 1007.79 796.56 1007.98 797.92 1007.05L803.15 1003.47C804.52 1002.54 806.84 1002.38 808.31 1003.13L813.03 1005.07C814.59 1005.59 816.12 1007.34 816.43 1008.96L817.59 1015.19C817.9 1016.81 819.5 1018.14 821.15 1018.14L829.15 1018.14C830.8 1018.14 832.4 1016.81 832.7 1015.19L833.87 1008.92C834.18 1007.3 835.71 1005.54 837.27 1005.02L841.92 1003.08C843.39 1002.33 845.7 1002.48 847.06 1003.41L852.38 1007.05C853.74 1007.98 855.81 1007.79 856.98 1006.62L862.63 1000.97C863.8 999.8 863.99 997.73 863.06 996.37L859.38 990.99C858.45 989.63 858.29 987.3 859.03 985.83L860.89 981.29C861.41 979.73 863.16 978.2 864.78 977.89L871.2 976.69ZM825.06 982.11C817.92 982.11 812.12 976.3 812.12 969.14C812.12 961.97 817.92 956.17 825.06 956.17C832.21 956.17 838 961.97 838 969.14C838 976.3 832.21 982.11 825.06 982.11ZM924.96 1014.59C925.19 1012.96 926.59 1011.04 928.08 1010.32L932.82 1008.05C934.3 1007.34 935.17 1005.45 934.74 1003.86L932.86 996.84C932.44 995.24 930.74 994.04 929.1 994.17L923.24 994.62C921.6 994.74 919.48 993.87 918.54 992.68C918.54 992.68 918.54 992.68 917.54 991.68C915.92 990.06 914.72 989.25 914.72 989.25C913.36 988.32 912.34 986.21 912.47 984.57L912.78 980.53C912.9 978.89 911.7 977.19 910.11 976.76L903.09 974.88C901.5 974.46 899.61 975.32 898.89 976.81L896.73 981.32C896.02 982.81 894.12 984.31 892.5 984.65L888.56 985.92C887.04 986.57 884.68 986.34 883.32 985.4L879.81 983C878.44 982.07 876.38 982.26 875.21 983.43L870.07 988.56C868.9 989.73 868.71 991.8 869.64 993.16L872.48 997.31C873.41 998.67 873.74 1001.06 873.22 1002.62L872.46 1005.66C872.21 1007.29 870.78 1009.2 869.3 1009.92L865.13 1011.91C863.65 1012.63 862.78 1014.52 863.2 1016.11L865.09 1023.13C865.51 1024.72 867.21 1025.92 868.85 1025.8L873.34 1025.45C874.99 1025.33 877.13 1026.31 878.11 1027.64C878.11 1027.64 878.47 1028.13 879.78 1029.45C881.01 1030.68 881.32 1030.91 881.32 1030.91C882.64 1031.9 883.62 1034.05 883.5 1035.69L883.16 1040.11C883.03 1041.75 884.23 1043.45 885.83 1043.87L892.85 1045.75C894.44 1046.18 896.33 1045.31 897.04 1043.82L898.9 1039.96C899.61 1038.47 901.53 1037.05 903.16 1036.81L907.33 1035.74C908.89 1035.19 911.27 1035.49 912.64 1036.42L917.74 1039.92C919.1 1040.85 921.17 1040.66 922.34 1039.49L927.48 1034.35C928.64 1033.19 928.84 1031.12 927.9 1029.76L924.44 1024.7C923.51 1023.34 923.2 1020.95 923.76 1019.4L924.96 1014.59ZM904.59 1016.49C901.32 1019.76 896.02 1019.76 892.75 1016.48C889.47 1013.21 889.46 1007.9 892.73 1004.64C896 1001.37 901.3 1001.37 904.58 1004.65C907.85 1007.92 907.86 1013.23 904.59 1016.49Z" style="fill: rgb(72, 127, 188);"/>
    <path id="Color Fill 4" class="shp44" d="M907.62 1019.52C902.69 1024.45 894.68 1024.44 889.73 1019.5C884.78 1014.55 884.77 1006.54 889.71 1001.6C894.64 996.66 902.66 996.67 907.6 1001.62C912.55 1006.57 912.56 1014.58 907.62 1019.52ZM825.06 987.62C814.88 987.62 806.63 979.35 806.63 969.14C806.63 958.94 814.88 950.66 825.06 950.66C835.25 950.66 843.5 958.94 843.5 969.14C843.5 979.35 835.25 987.62 825.06 987.62Z" style="fill: rgb(218, 234, 242);"/>
    <path id="Shape 20" class="shp49" d="M790 934L860 1004C860 1004 823 1041 789 1004C755 967 790 934 790 934ZM871 985L926 1038C926 1038 900.04 1062.96 874 1039C849 1016 871 985 871 985Z" style="fill: rgb(0, 35, 74); opacity: 0.2;"/>
  </g>
</svg>