<?xml version="1.0" encoding="utf-8"?>
<svg viewBox="0 0 500 500" xmlns="http://www.w3.org/2000/svg">
  <path id="logo" class="shp21" d="M 186.727 70.132 L 185.577 76.222 C 180.557 78.952 176.057 80.542 170.147 80.742 C 160.107 81.072 153.367 75.152 153.367 64.792 C 153.367 52.682 161.697 44.322 174.067 44.462 C 180.087 44.532 184.257 46.512 186.107 47.772 L 182.757 55.402 C 181.257 54.672 178.437 54.162 176.057 54.162 C 169.947 54.162 166.957 58.132 166.787 63.252 C 166.617 68.542 169.887 72.052 174.727 72.512 C 181.167 73.132 185.137 70.932 186.727 70.132 Z M 209.177 72.012 C 208.927 73.842 209.597 74.962 213.837 73.112 L 215.357 77.612 C 210.057 80.102 206.847 80.742 204.727 80.742 C 201.517 80.742 199.607 79.422 198.887 77.522 C 196.557 79.682 194.107 80.742 191.307 80.742 C 186.817 80.742 184.107 77.432 184.747 72.992 L 186.907 57.742 L 197.147 57.742 L 195.327 70.582 C 195.157 71.722 195.877 72.652 196.937 72.652 C 197.957 72.652 198.927 71.722 199.097 70.582 L 200.917 57.742 L 211.167 57.742 L 209.177 72.012 Z M 229.547 59.952 L 231.067 48.892 L 241.317 48.892 L 238.057 72.182 C 237.847 73.842 238.597 75.072 242.837 72.782 L 244.507 77.542 C 242.837 78.512 238.687 80.812 233.607 80.742 C 230.477 80.702 228.487 79.302 227.807 77.222 C 226.027 79.302 223.867 80.742 220.567 80.742 C 215.827 80.742 213.077 76.332 213.077 70.832 C 213.077 63.082 218.027 57.192 224.207 57.192 C 226.667 57.192 228.317 58.252 229.547 59.952 Z M 229.167 68.332 C 229.167 66.552 228.187 65.152 226.667 65.152 C 224.677 65.152 223.107 67.192 223.107 69.522 C 223.107 71.292 224.037 72.692 225.607 72.692 C 227.557 72.692 229.167 70.662 229.167 68.332 Z M 258.887 59.952 L 259.187 57.742 L 269.437 57.742 L 267.397 72.182 C 267.187 73.842 268.207 74.132 269.777 73.752 L 269.407 78.142 C 267.227 79.862 265.077 80.742 262.957 80.742 C 259.817 80.742 257.827 79.302 257.157 77.222 C 255.377 79.342 253.127 80.742 249.917 80.742 C 245.167 80.742 242.417 76.332 242.417 70.832 C 242.417 63.252 247.367 57.192 253.557 57.192 C 256.007 57.192 257.657 58.252 258.887 59.952 Z M 258.507 68.332 C 258.507 66.552 257.537 65.152 256.007 65.152 C 254.017 65.152 252.457 67.192 252.457 69.522 C 252.457 71.292 253.387 72.692 254.947 72.692 C 256.897 72.692 258.507 70.662 258.507 68.332 Z" style="fill: rgb(255, 255, 255);"/>
</svg>