<?xml version="1.0" encoding="utf-8"?>
<svg viewBox="0 0 500 500" xmlns="http://www.w3.org/2000/svg">
  <g id="Fb icon" transform="matrix(1, 0, 0, 1, -62.288427, -2025.917098)">
    <path id="base" class="shp33" d="M235 2098C243.84 2098 251 2105.16 251 2114C251 2122.84 243.84 2130 235 2130C226.16 2130 219 2122.84 219 2114C219 2105.16 226.16 2098 235 2098Z" style="fill: rgb(189, 209, 223);"/>
    <path id="Facebook Icon" class="shp21" d="M237.98 2106.94L236.33 2106.94C236.33 2106.94 233.01 2106.69 233.01 2110.18C233.01 2110.93 233.01 2111.99 233.01 2111.99L231.02 2111.99L231.02 2114L233.01 2114L232.98 2122.01L236.01 2122.01L236.01 2114.03L237.75 2114L238.38 2111.99L235.98 2111.99L235.98 2109.93C235.98 2109.93 235.96 2109.01 237.03 2109.01L237.97 2109.01L237.98 2106.94Z" style="fill: rgb(255, 255, 255);"/>
  </g>
</svg>