<?xml version="1.0" encoding="utf-8"?>
<svg viewBox="0 0 500 500" xmlns="http://www.w3.org/2000/svg">
  <g id="LinkedIn icon" transform="matrix(1, 0, 0, 1, -97.47496, -1988.784058)">
    <path id="Base" class="shp33" d="M322 2098C330.84 2098 338 2105.16 338 2114C338 2122.84 330.84 2130 322 2130C313.16 2130 306 2122.84 306 2114C306 2105.16 313.16 2098 322 2098Z" style="fill: rgb(189, 209, 223);"/>
    <path id="LinkedIn icon" class="shp21" d="M318.46 2106.92C318.46 2107.89 317.76 2108.61 316.57 2108.61C315.44 2108.61 314.69 2107.89 314.69 2106.92C314.69 2105.92 315.44 2105.21 316.59 2105.21C317.74 2105.21 318.44 2105.92 318.46 2106.92ZM315 2121.01L315 2109.99L318.01 2109.99L318.01 2121.01L315 2121.01ZM320.02 2109.99L322.7 2109.99L323.02 2111.11C323.47 2110.4 324.43 2109.61 326.25 2109.61C328.47 2109.61 330.01 2110.9 330.01 2114.1L330.01 2120.98L327.01 2120.98L327.01 2114.58C327.01 2113.18 326.04 2112.23 324.82 2112.23C323.89 2112.23 323.35 2112.87 323.1 2113.49C323.01 2113.71 322.99 2114.02 322.99 2114.33L322.99 2120.98L320.02 2120.98L320.02 2109.99Z" style="fill: rgb(255, 255, 255);"/>
  </g>
</svg>