<?xml version="1.0" encoding="utf-8"?>
<svg viewBox="0 0 500 500" xmlns="http://www.w3.org/2000/svg">
  <g id="Mail icon" transform="matrix(1, 0, 0, 1, -138.020724, -1989.647668)">
    <path id="Base" class="shp33" d="M366 2098C374.84 2098 382 2105.16 382 2114C382 2122.84 374.84 2130 366 2130C357.16 2130 350 2122.84 350 2114C350 2105.16 357.16 2098 366 2098Z" style="fill: rgb(189, 209, 223);"/>
    <path id="Mail" class="shp21" d="M358.61 2110.18C359.1 2110.45 364.85 2114.19 365.1 2114.33C365.35 2114.47 365.68 2114.53 366 2114.53C366.33 2114.53 366.66 2114.47 366.91 2114.33C367.16 2114.19 372.91 2110.45 373.4 2110.18C373.89 2109.91 374.35 2109.06 373.45 2109.06L358.56 2109.06C357.66 2109.06 358.12 2109.91 358.61 2110.18ZM373.6 2112.24C373.05 2112.54 367.25 2116.21 366.91 2116.39C366.57 2116.57 366.33 2116.59 366 2116.59C365.68 2116.59 365.44 2116.57 365.1 2116.39C364.76 2116.21 358.96 2112.54 358.4 2112.24C358.01 2112.03 358.02 2112.27 358.02 2112.46C358.02 2112.65 358.02 2120.02 358.02 2120.02C358.02 2120.45 358.57 2121.01 359.01 2121.01L373 2121.01C373.43 2121.01 373.99 2120.45 373.99 2120.02C373.99 2120.02 373.99 2112.65 373.99 2112.46C373.99 2112.27 373.99 2112.03 373.6 2112.24Z" style="fill: rgb(255, 255, 255);"/>
  </g>
</svg>