<?xml version="1.0" encoding="utf-8"?>
<svg viewBox="0 0 500 500" xmlns="http://www.w3.org/2000/svg">
  <g id="Twitter icon" transform="matrix(1, 0, 0, 1, -24.25043, -1987.920552)">
    <path id="Base" class="shp33" d="M279 2098C287.84 2098 295 2105.16 295 2114C295 2122.84 287.84 2130 279 2130C270.16 2130 263 2122.84 263 2114C263 2105.16 270.16 2098 279 2098Z" style="fill: rgb(189, 209, 223);"/>
    <path id="Twitter" class="shp21" d="M287.98 2109.66C287.36 2109.94 286.69 2110.13 285.98 2110.21C286.7 2109.77 287.26 2109.08 287.52 2108.26C286.84 2108.66 286.1 2108.96 285.3 2109.11C284.67 2108.43 283.76 2108 282.76 2108C280.84 2108 279.28 2109.58 279.28 2111.53C279.28 2111.81 279.31 2112.08 279.37 2112.34C276.48 2112.19 273.91 2110.78 272.2 2108.64C271.9 2109.17 271.73 2109.77 271.73 2110.42C271.73 2111.65 272.34 2112.73 273.27 2113.36C272.7 2113.35 272.17 2113.19 271.7 2112.92C271.7 2112.94 271.7 2112.95 271.7 2112.97C271.7 2114.68 272.9 2116.11 274.49 2116.43C274.2 2116.51 273.89 2116.56 273.57 2116.56C273.35 2116.56 273.13 2116.54 272.92 2116.49C273.36 2117.9 274.65 2118.92 276.17 2118.95C274.98 2119.9 273.48 2120.46 271.85 2120.46C271.56 2120.46 271.29 2120.45 271.02 2120.41C272.56 2121.42 274.39 2122 276.35 2122C282.76 2122 286.26 2116.61 286.26 2111.94C286.26 2111.79 286.25 2111.64 286.25 2111.49C286.93 2110.99 287.52 2110.36 287.98 2109.66Z" style="fill: rgb(255, 255, 255);"/>
  </g>
</svg>