<?xml version="1.0" encoding="utf-8"?>
<svg viewBox="0 0 500 500" xmlns="http://www.w3.org/2000/svg">
  <g id="1" transform="matrix(1, 0, 0, 1, -957.474988, -2424.543546)">
    <text id="85%" style="transform: matrix(1.158, 0, 0, 1.158, 1106.48, 2677.27); white-space: pre;">
				<tspan x="0" y="0" class="txt26" dx="0 1 1" style="fill: rgb(60, 71, 97); font-family: TitilliumWeb-Light, &quot;Titillium Web&quot;; font-size: 43px; font-weight: 300; line-height: 18px;">85%</tspan>
			</text>
    <path id="Base" fill-rule="evenodd" class="shp27" d="M1140 2580C1184.18 2580 1220 2615.82 1220 2660C1220 2704.18 1184.18 2740 1140 2740C1095.82 2740 1060 2704.18 1060 2660C1060 2615.82 1095.82 2580 1140 2580ZM1073 2660C1073 2697 1103 2727 1140 2727C1177 2727 1207 2697 1207 2660C1207 2623 1177 2593 1140 2593C1103 2593 1073 2623 1073 2660Z" style="fill: rgb(223, 232, 237);"/>
    <path id="Progress" class="shp29" d="M1140 2569.33L1140 2600.5C1140 2600.5 1244.55 2669 1174.9 2706.57C1072.22 2761.95 1087.32 2629.69 1087.32 2629.69L1063.79 2615.36C1063.79 2615.36 1051.17 2653.4 1060.32 2687.49C1070.41 2725.09 1105.22 2758.3 1173 2739.25C1233.37 2722.28 1232.67 2647.67 1209.67 2613.67C1186.67 2579.67 1140 2569.33 1140 2569.33Z" style="fill: rgb(235, 125, 75);"/>
  </g>
</svg>